<svg xmlns="http://www.w3.org/2000/svg" viewBox="0 0 22.27 12.95"><defs><style>.cls-1{fill:gray;}</style></defs><title>Asset 12</title><g id="Layer_2" data-name="Layer 2"><g id="Layer_10" data-name="Layer 10"><path class="cls-1" d="M1.77,3.45c-.1-.09-.21-.17-.31-.27a2.48,2.48,0,0,1-.52-.64C.84,2.37.75,2.19.66,2a.25.25,0,0,1,.22-.37,12.14,12.14,0,0,1,1.81.12,4.39,4.39,0,0,1,1.13.3l.39.19.09,0c0-.16,0-.3,0-.44A2.87,2.87,0,0,0,4.06,1,5.77,5.77,0,0,0,3.77.4.62.62,0,0,1,3.7.21.2.2,0,0,1,3.84,0a.2.2,0,0,1,.24.05,3,3,0,0,1,.24.38A3.83,3.83,0,0,1,4.74,2.2a.15.15,0,0,0,0,.06c.08,0,.16-.09.24-.12A3.69,3.69,0,0,1,6.12,1.8a10.66,10.66,0,0,1,2-.16A.25.25,0,0,1,8.33,2a2.67,2.67,0,0,1-.64,1,5.43,5.43,0,0,1-.53.42.09.09,0,0,1-.06,0c.1.06.19.1.27.16a3.58,3.58,0,0,1,.39.29,2.59,2.59,0,0,1,.83,1.13A3.52,3.52,0,0,1,8.8,6,4.46,4.46,0,0,1,8.52,7.9a8.68,8.68,0,0,1-.34.84c-.14.31-.31.61-.47.92a9.37,9.37,0,0,1-.93,1.42,7.34,7.34,0,0,1-1.26,1.35,2.5,2.5,0,0,1-.75.45,1.24,1.24,0,0,1-.89,0,3.29,3.29,0,0,1-1.09-.74,7.33,7.33,0,0,1-1.15-1.4c-.27-.41-.51-.83-.74-1.26a9,9,0,0,1-.71-1.8A4.92,4.92,0,0,1,0,6.27,3.15,3.15,0,0,1,.4,4.71a2.4,2.4,0,0,1,.72-.83C1.33,3.73,1.55,3.59,1.77,3.45Zm6.6,2.87a2.85,2.85,0,0,0-.23-1.18A2.52,2.52,0,0,0,7.4,4.2a4.84,4.84,0,0,0-.86-.48s0,0,0,0a3.45,3.45,0,0,1-1.83-.11H4.55l-.32.11a3,3,0,0,1-1.8,0,.26.26,0,0,0-.24,0c-.14.09-.31.14-.46.23A2.38,2.38,0,0,0,.53,5.57a3.6,3.6,0,0,0,0,1.6A8.57,8.57,0,0,0,1.3,9.26a11.55,11.55,0,0,0,.6,1,7.65,7.65,0,0,0,1.31,1.59,2.85,2.85,0,0,0,.85.56.83.83,0,0,0,.69,0A3.09,3.09,0,0,0,5.38,12a6.3,6.3,0,0,0,1-1c.26-.36.52-.72.76-1.09a6,6,0,0,0,.39-.7A8.51,8.51,0,0,0,8.1,7.76,4.6,4.6,0,0,0,8.37,6.32ZM1.2,2.11A2.83,2.83,0,0,0,1.92,3a2.08,2.08,0,0,0,1.38.43,2.91,2.91,0,0,0,1.12-.26.36.36,0,0,1,.27,0,3.3,3.3,0,0,0,1.43.18,2,2,0,0,0,.81-.25,2,2,0,0,0,.74-.74l.14-.25H7.74a13.79,13.79,0,0,0-1.43.12,4.9,4.9,0,0,0-1.06.29,1.25,1.25,0,0,0-.56.43.24.24,0,0,1-.41,0A1.18,1.18,0,0,0,4,2.67a2.51,2.51,0,0,0-1-.38,8.6,8.6,0,0,0-1.35-.18Z"/><path class="cls-1" d="M1.59,7V6.85a.23.23,0,0,1,.25-.2.24.24,0,0,1,.28.19,2.41,2.41,0,0,1,0,.38.25.25,0,0,1-.28.2.24.24,0,0,1-.25-.21Z"/><path class="cls-1" d="M7.4,7v.2a.28.28,0,0,1-.52,0,2.8,2.8,0,0,1,0-.41.28.28,0,0,1,.52,0V7Z"/><path class="cls-1" d="M5.12,7a1.2,1.2,0,0,1,0-.19.21.21,0,0,1,.23-.19c.14,0,.27,0,.28.16a1.62,1.62,0,0,1,0,.44c0,.11-.14.18-.27.17s-.24-.09-.24-.2a1.21,1.21,0,0,1,0-.19Z"/><path class="cls-1" d="M3.88,7v.18a.24.24,0,0,1-.27.2.23.23,0,0,1-.26-.21V6.86a.23.23,0,0,1,.25-.21.24.24,0,0,1,.28.19Z"/><path class="cls-1" d="M2.43,8.73V8.55a.24.24,0,0,1,.25-.21c.15,0,.28.08.28.2a2.41,2.41,0,0,1,0,.38c0,.12-.13.2-.28.2a.24.24,0,0,1-.25-.21Z"/><path class="cls-1" d="M6,8.73a1.34,1.34,0,0,1,0-.2c0-.1.1-.18.24-.19s.26.06.27.16a1.7,1.7,0,0,1,0,.45c0,.11-.14.17-.27.17A.23.23,0,0,1,6,8.92V8.73Z"/><path class="cls-1" d="M4.72,8.73a1.2,1.2,0,0,1,0,.19.25.25,0,0,1-.27.2.25.25,0,0,1-.26-.22V8.55a.24.24,0,0,1,.25-.21c.15,0,.27.07.28.19A1.33,1.33,0,0,1,4.72,8.73Z"/><path class="cls-1" d="M2.43,5.5V5.31a.23.23,0,0,1,.25-.2c.15,0,.28.07.28.19a2.41,2.41,0,0,1,0,.38c0,.12-.13.2-.28.2a.24.24,0,0,1-.25-.21Z"/><path class="cls-1" d="M6,5.49A1.2,1.2,0,0,1,6,5.3c0-.11.1-.19.24-.19s.26,0,.27.16a1.62,1.62,0,0,1,0,.44c0,.11-.14.18-.27.17S6,5.79,6,5.68V5.49Z"/><path class="cls-1" d="M4.72,5.5a1.08,1.08,0,0,1,0,.18.24.24,0,0,1-.27.2.25.25,0,0,1-.26-.21V5.31a.23.23,0,0,1,.25-.2c.15,0,.27.06.28.19A1.33,1.33,0,0,1,4.72,5.5Z"/><path class="cls-1" d="M4.72,10.51a1.08,1.08,0,0,1,0,.18.24.24,0,0,1-.27.2.24.24,0,0,1-.26-.21v-.35a.23.23,0,0,1,.25-.21.24.24,0,0,1,.28.19A1.33,1.33,0,0,1,4.72,10.51Z"/><path class="cls-1" d="M10.94,6.53v0c.14-.22.28-.43.41-.65l.08-.09.19-.21h.11a.72.72,0,0,0,.72-.87.77.77,0,0,0-.08-.19.26.26,0,0,1,0-.28c.27-.42.53-.84.79-1.26l1.05-1.67a.26.26,0,0,1,.27-.15c.47,0,.94,0,1.41.06.28,0,.56.06.84.1a12.28,12.28,0,0,1,2,.48,8.3,8.3,0,0,1,2.38,1.19A5.26,5.26,0,0,1,22.2,4a.41.41,0,0,1,.07.28v5c0,.16-.05.21-.2.26l-2.69.77-1.92.55-1.68.47L13.37,12l-1.85.53a.27.27,0,0,1-.09,0l-.3-.3.06,0,1.75-.49L15,11.13l2.09-.6,2.06-.59,2.63-.75a.1.1,0,0,0,.09-.11c0-.95,0-1.91,0-2.86V4.47l-.19,0-2.5.71-1.34.38L16.64,6s-.05,0-.06.07a1,1,0,0,1,0,.3A1.26,1.26,0,0,1,15,7.3a1.23,1.23,0,0,1-.83-.59.08.08,0,0,0-.1,0l-.37.11-1.92.55h-.07L11.44,7l.13,0,2.27-.65.07,0-.11-.16a.69.69,0,0,1,.26-1A1.5,1.5,0,0,1,15,5a2.51,2.51,0,0,1,1.39.56.12.12,0,0,0,.1,0l.81-.23L19,4.86l2.47-.7.29-.09v0l0-.06A5.37,5.37,0,0,0,20,2.72c-.33-.17-.68-.32-1-.46a9.17,9.17,0,0,0-1.7-.49q-.6-.1-1.2-.18a10.41,10.41,0,0,0-1.48-.09.09.09,0,0,0-.08.05c-.26.4-.51.8-.76,1.21s-.39.63-.59,1l-.36.54a.15.15,0,0,0,0,.16,1,1,0,0,1,.05.63,1.1,1.1,0,0,1-1,.88.09.09,0,0,0-.07,0c-.1.14-.19.29-.28.44s-.17.26-.26.38Zm3.84-1.15a1.21,1.21,0,0,0-.48.08.3.3,0,0,0-.17.42,1,1,0,0,0,.26.35.41.41,0,0,1,.1.13.8.8,0,0,0,.55.52.85.85,0,0,0,.86-.18.87.87,0,0,0,.28-.6.27.27,0,0,0-.12-.3,2.86,2.86,0,0,0-.52-.27A2.23,2.23,0,0,0,14.78,5.38Z"/><path class="cls-1" d="M10.94,6.53l.27.26L11,7.13l.29-.08.13,0,.31.29-.06,0-.86.25a.08.08,0,0,0-.07.09v.76c0,.08,0,.11.09.13a1.11,1.11,0,0,1,0,2.15c-.07,0-.08,0-.08.1v.93a.24.24,0,0,1,0,.08l-.36-.35s0-.05,0-.07v-.82a.22.22,0,0,1,.23-.24A.71.71,0,0,0,10.73,9l-.18,0a.19.19,0,0,1-.19-.2V7.48a.38.38,0,0,1,.05-.15l.48-.77Z"/><path class="cls-1" d="M11.13,12.24l.3.3s0,0,0,0c-.25.07-.5.15-.75.21a.21.21,0,0,1-.28-.22v-.25s0-.06,0-.08l.36-.36a.29.29,0,0,1,0,.09v.37Z"/><path class="cls-1" d="M10.74,11.88l-.36.36s0,0,0-.05v-.65s0,0,0,0l.36.35Z"/><path class="cls-1" d="M11.62,5.53l-.19.21A.25.25,0,0,1,11.62,5.53Z"/><path class="cls-1" d="M18.41,7.09A1.19,1.19,0,0,1,19.7,5.9a1,1,0,0,1,.9.85,1.22,1.22,0,0,1-.76,1.31,1,1,0,0,1-1.2-.31A1.14,1.14,0,0,1,18.41,7.09Zm1,.64a.8.8,0,0,0,.76-.88.6.6,0,0,0-.7-.55.81.81,0,0,0-.68.73A.62.62,0,0,0,19.44,7.73Z"/><path class="cls-1" d="M14.82,9.66a1.24,1.24,0,0,1-.35.88.81.81,0,0,1-1.23-.08A1.21,1.21,0,0,1,13,9.61a1.14,1.14,0,0,1,.45-.91.79.79,0,0,1,1,.06A1.19,1.19,0,0,1,14.82,9.66Zm-.4,0a.37.37,0,0,1,0-.11.84.84,0,0,0-.24-.5.42.42,0,0,0-.53,0,.67.67,0,0,0-.24.38.86.86,0,0,0,.18.82.4.4,0,0,0,.61,0A.89.89,0,0,0,14.42,9.66Z"/><path class="cls-1" d="M17.56,10a.93.93,0,0,1-.74-.34.7.7,0,0,1,.13-1,1,1,0,0,1,1.27,0,.7.7,0,0,1,0,1.05A1,1,0,0,1,17.56,10Zm0-.48v0a1.82,1.82,0,0,0,.28-.11A.23.23,0,0,0,17.92,9a.53.53,0,0,0-.72,0,.23.23,0,0,0,0,.31A.5.5,0,0,0,17.57,9.5Z"/><path class="cls-1" d="M15,4.05a.88.88,0,0,1-.82-.58.9.9,0,0,1,.08-.87,1.15,1.15,0,0,1,1-.57.93.93,0,0,1,1,.77,1,1,0,0,1-.28.87A1.24,1.24,0,0,1,15,4.05Zm.09-.4a.77.77,0,0,0,.75-.54.5.5,0,0,0-.24-.59.71.71,0,0,0-.81.08.66.66,0,0,0-.28.46A.54.54,0,0,0,15.13,3.65Z"/><path class="cls-1" d="M18.38,4.07a.87.87,0,0,1-.59-.26.59.59,0,0,1,.05-.87.84.84,0,0,1,1,0,.57.57,0,0,1,.27.59.61.61,0,0,1-.46.52Zm0-.93a1.45,1.45,0,0,0-.21.08.2.2,0,0,0,0,.35.45.45,0,0,0,.53,0,.2.2,0,0,0,0-.29C18.6,3.17,18.49,3.16,18.35,3.14Z"/></g></g></svg>