<svg xmlns="http://www.w3.org/2000/svg" viewBox="0 0 23.94 23.95"><defs><style>.cls-1{fill:#ff285f;}</style></defs><title>Asset 9</title><g id="Layer_2" data-name="Layer 2"><g id="Layer_11" data-name="Layer 11"><path class="cls-1" d="M21.67,5.06a3.14,3.14,0,0,1-.22.41c-.49.65-1,1.3-1.49,1.94a.3.3,0,0,0,0,.38c.22.48.43,1,.61,1.45a.42.42,0,0,0,.39.33c.81.09,1.62.2,2.43.32a.48.48,0,0,1,.48.49,11.29,11.29,0,0,1,0,3.18.51.51,0,0,1-.51.51l-2.49.32a.28.28,0,0,0-.27.22c-.2.53-.42,1.05-.65,1.57a.29.29,0,0,0,0,.34c.51.65,1,1.3,1.51,2a.55.55,0,0,1,0,.81,12.15,12.15,0,0,1-2.15,2.15.56.56,0,0,1-.84,0L16.54,20a.3.3,0,0,0-.37,0c-.51.23-1,.44-1.55.64-.13.05-.21.11-.22.26-.1.81-.22,1.62-.32,2.42-.05.42-.19.56-.6.61a11.66,11.66,0,0,1-3,0c-.41,0-.55-.18-.6-.58-.1-.79-.21-1.57-.3-2.36a.38.38,0,0,0-.32-.37c-.5-.18-1-.4-1.47-.62a.3.3,0,0,0-.36,0L5.5,21.43a.57.57,0,0,1-.87,0A11.93,11.93,0,0,1,2.5,19.3a.55.55,0,0,1,0-.82c.51-.65,1-1.31,1.51-2a.27.27,0,0,0,0-.34c-.23-.51-.44-1-.65-1.57a.29.29,0,0,0-.26-.22c-.83-.09-1.65-.21-2.48-.32a.51.51,0,0,1-.53-.53,11.29,11.29,0,0,1,0-3.18.48.48,0,0,1,.48-.47C1.4,9.77,2.21,9.66,3,9.57a.42.42,0,0,0,.39-.33A15.77,15.77,0,0,1,4,7.77a.29.29,0,0,0,0-.36L2.51,5.49a.57.57,0,0,1,0-.86A12.1,12.1,0,0,1,4.66,2.49a.55.55,0,0,1,.82,0L7.41,4a.3.3,0,0,0,.37,0c.5-.22,1-.44,1.52-.63a.33.33,0,0,0,.26-.31c.1-.78.21-1.57.3-2.35.06-.45.17-.57.63-.63a11.34,11.34,0,0,1,3.08,0c.32,0,.47.21.51.56.1.82.22,1.64.32,2.45a.28.28,0,0,0,.22.26c.52.2,1,.41,1.54.64a.32.32,0,0,0,.39,0l1.94-1.49a.55.55,0,0,1,.81,0,12.67,12.67,0,0,1,2.16,2.17C21.54,4.78,21.59,4.92,21.67,5.06Zm1.22,8c0-.68,0-1.35,0-2,0-.21-.1-.26-.29-.28l-2.35-.3a.56.56,0,0,1-.54-.46,7.58,7.58,0,0,0-.91-2.18.53.53,0,0,1,0-.66l.72-.94,1-1.23L19,3.57c-.11-.11-.19,0-.28,0L16.79,5.07a.53.53,0,0,1-.74,0,8.21,8.21,0,0,0-2.14-.89.51.51,0,0,1-.45-.5c-.11-.83-.23-1.65-.33-2.48,0-.13-.06-.19-.2-.19H11.06c-.17,0-.23.07-.25.24-.1.82-.21,1.63-.32,2.45a.52.52,0,0,1-.45.49,7.82,7.82,0,0,0-2.16.89.56.56,0,0,1-.72,0c-.32-.27-.66-.51-1-.77L5,3.44,3.44,5c.57.74,1.1,1.42,1.62,2.11a.54.54,0,0,1,.05.76,8,8,0,0,0-.86,2c-.11.42-.22.51-.65.56l-2.33.3c-.15,0-.22.07-.22.22,0,.63,0,1.26,0,1.89a.58.58,0,0,0,0,.19l2.6.34a.52.52,0,0,1,.53.46,7.6,7.6,0,0,0,.9,2.16.57.57,0,0,1,0,.71c-.42.53-.83,1.07-1.25,1.61l-.4.54c.5.48,1,.95,1.47,1.43.12.11.2.09.32,0l1.94-1.5a.56.56,0,0,1,.71,0,7.55,7.55,0,0,0,2.18.9.53.53,0,0,1,.43.48c.11.82.22,1.65.32,2.47,0,.17.09.23.24.23h1.84c.15,0,.22-.06.24-.23.1-.81.22-1.61.32-2.42a.59.59,0,0,1,.48-.55,7.41,7.41,0,0,0,2.12-.87.56.56,0,0,1,.76.06l1.92,1.47c.06,0,.2.07.24,0,.52-.48,1-1,1.54-1.47l-.25-.32c-.46-.61-.93-1.22-1.4-1.82a.57.57,0,0,1,0-.73,7.58,7.58,0,0,0,.89-2.14.52.52,0,0,1,.53-.46Z"/><path class="cls-1" d="M12,16.72A4.82,4.82,0,0,1,7.22,12,4.85,4.85,0,0,1,12,7.22,4.83,4.83,0,0,1,16.72,12,4.83,4.83,0,0,1,12,16.72Zm0-8.49a3.66,3.66,0,0,0-3.76,3.66,3.65,3.65,0,0,0,3.64,3.82A3.66,3.66,0,0,0,15.71,12,3.67,3.67,0,0,0,12,8.23Z"/></g></g></svg>