<svg xmlns="http://www.w3.org/2000/svg" viewBox="0 0 8.82 12.95"><defs><style>.cls-1{fill:gray;}</style></defs><title>Asset 7</title><g id="Layer_2" data-name="Layer 2"><g id="Layer_10" data-name="Layer 10"><path class="cls-1" d="M1.77,3.45c-.1-.09-.21-.17-.31-.27a2.48,2.48,0,0,1-.52-.64C.84,2.37.75,2.19.66,2a.25.25,0,0,1,.22-.37,12.14,12.14,0,0,1,1.81.12,4.39,4.39,0,0,1,1.13.3l.39.19.09,0c0-.16,0-.3,0-.44A2.87,2.87,0,0,0,4.06,1,5.77,5.77,0,0,0,3.77.4.62.62,0,0,1,3.7.21.2.2,0,0,1,3.84,0a.2.2,0,0,1,.24.05,3,3,0,0,1,.24.38A3.83,3.83,0,0,1,4.74,2.2a.15.15,0,0,0,0,.06c.08,0,.16-.09.24-.12A3.69,3.69,0,0,1,6.12,1.8a10.66,10.66,0,0,1,2-.16A.25.25,0,0,1,8.33,2a2.67,2.67,0,0,1-.64,1,5.43,5.43,0,0,1-.53.42.09.09,0,0,1-.06,0c.1.06.19.1.27.16a3.58,3.58,0,0,1,.39.29,2.59,2.59,0,0,1,.83,1.13A3.52,3.52,0,0,1,8.8,6,4.46,4.46,0,0,1,8.52,7.9a8.68,8.68,0,0,1-.34.84c-.14.31-.31.61-.47.92a9.37,9.37,0,0,1-.93,1.42,7.34,7.34,0,0,1-1.26,1.35,2.5,2.5,0,0,1-.75.45,1.24,1.24,0,0,1-.89,0,3.29,3.29,0,0,1-1.09-.74,7.33,7.33,0,0,1-1.15-1.4c-.27-.41-.51-.83-.74-1.26a9,9,0,0,1-.71-1.8A4.92,4.92,0,0,1,0,6.27,3.15,3.15,0,0,1,.4,4.71a2.4,2.4,0,0,1,.72-.83C1.33,3.73,1.55,3.59,1.77,3.45Zm6.6,2.87a2.85,2.85,0,0,0-.23-1.18A2.52,2.52,0,0,0,7.4,4.2a4.84,4.84,0,0,0-.86-.48s0,0,0,0a3.45,3.45,0,0,1-1.83-.11H4.55l-.32.11a3,3,0,0,1-1.8,0,.26.26,0,0,0-.24,0c-.14.09-.31.14-.46.23A2.38,2.38,0,0,0,.53,5.57a3.6,3.6,0,0,0,0,1.6A8.57,8.57,0,0,0,1.3,9.26a11.55,11.55,0,0,0,.6,1,7.65,7.65,0,0,0,1.31,1.59,2.85,2.85,0,0,0,.85.56.83.83,0,0,0,.69,0A3.09,3.09,0,0,0,5.38,12a6.3,6.3,0,0,0,1-1c.26-.36.52-.72.76-1.09a6,6,0,0,0,.39-.7A8.51,8.51,0,0,0,8.1,7.76,4.6,4.6,0,0,0,8.37,6.32ZM1.2,2.11A2.83,2.83,0,0,0,1.92,3a2.08,2.08,0,0,0,1.38.43,2.91,2.91,0,0,0,1.12-.26.36.36,0,0,1,.27,0,3.3,3.3,0,0,0,1.43.18,2,2,0,0,0,.81-.25,2,2,0,0,0,.74-.74l.14-.25H7.74a13.79,13.79,0,0,0-1.43.12,4.9,4.9,0,0,0-1.06.29,1.25,1.25,0,0,0-.56.43.24.24,0,0,1-.41,0A1.18,1.18,0,0,0,4,2.67a2.51,2.51,0,0,0-1-.38,8.6,8.6,0,0,0-1.35-.18Z"/><path class="cls-1" d="M1.86,7V6.85c0-.12.11-.2.25-.2a.24.24,0,0,1,.28.19,2.41,2.41,0,0,1,0,.38.26.26,0,0,1-.28.2c-.14,0-.25-.09-.25-.21Z"/><path class="cls-1" d="M7.14,7v.2a.24.24,0,0,1-.25.19.23.23,0,0,1-.27-.18,2.8,2.8,0,0,1,0-.41c0-.11.12-.19.27-.18a.22.22,0,0,1,.24.19,1.2,1.2,0,0,1,0,.19Z"/><path class="cls-1" d="M4.19,7a1.15,1.15,0,0,1,0-.19.21.21,0,0,1,.23-.19c.14,0,.27,0,.28.16a1.62,1.62,0,0,1,0,.44c0,.11-.14.18-.27.17a.24.24,0,0,1-.25-.2V7Z"/><path class="cls-1" d="M3.07,8.73V8.55c0-.12.11-.2.26-.21s.27.08.27.2a2.41,2.41,0,0,1,0,.38c0,.12-.13.2-.27.2S3.08,9,3.07,8.91Z"/><path class="cls-1" d="M5.28,8.73v-.2a.24.24,0,0,1,.24-.19c.14,0,.27.06.28.16A3.38,3.38,0,0,1,5.8,9c0,.11-.14.17-.28.17s-.24-.1-.24-.2V8.73Z"/><path class="cls-1" d="M2.43,5.5V5.31a.23.23,0,0,1,.25-.2c.15,0,.28.07.28.19a2.41,2.41,0,0,1,0,.38c0,.12-.13.2-.28.2a.24.24,0,0,1-.25-.21Z"/><path class="cls-1" d="M6,5.49A1.2,1.2,0,0,1,6,5.3c0-.11.1-.19.24-.19s.26,0,.27.16a1.62,1.62,0,0,1,0,.44c0,.11-.14.18-.27.17S6,5.79,6,5.68V5.49Z"/><path class="cls-1" d="M4.72,10.51a1.08,1.08,0,0,1,0,.18.24.24,0,0,1-.27.2.24.24,0,0,1-.26-.21v-.35a.23.23,0,0,1,.25-.21.24.24,0,0,1,.28.19A1.33,1.33,0,0,1,4.72,10.51Z"/></g></g></svg>