<svg xmlns="http://www.w3.org/2000/svg" viewBox="0 0 547.73 533.52"><defs><style>.cls-1{fill:none;stroke:gray;stroke-miterlimit:10;stroke-width:50px;}</style></defs><title>Asset 3</title><g id="Layer_2" data-name="Layer 2"><g id="Layer_1-2" data-name="Layer 1"><path class="cls-1" d="M25,204.29c.69-4.61,1.22-9.25,2.1-13.83,4.18-21.85,14.77-40.23,30.62-55.66A104,104,0,0,1,116,105.9a102,102,0,0,1,45.12,3.41c2.67.8,5.32,1.64,8.22,2.54C175.52,81.75,191.17,58,217,41.42,236.2,29.1,257.4,24,280.07,25.17a106.05,106.05,0,0,1,98,86.5c4.73-1.33,9.41-2.79,14.17-3.94,53.74-13,109.37,18,125.35,70.82,11.06,36.57,4.22,70.28-20.61,99.68-17,20.17-39.21,31.5-65.08,35.82a71.11,71.11,0,0,1-8.88.8c-1.63.06-2.1.66-2.21,2.24-.68,9.62-1.47,19.23-2.24,28.84-.88,11.05-1.82,22.08-2.67,33.13-1.18,15.27-2.28,30.54-3.46,45.81q-1.74,22.5-3.59,45c-.44,5.29-.62,10.65-1.74,15.8a29,29,0,0,1-28.45,22.83q-107.18.08-214.34,0c-13.82,0-26.9-11.63-28.31-25.38-1.37-13.44-2.22-26.93-3.31-40.4-1-12.93-2.11-25.86-3.11-38.79-1.18-15.18-2.28-30.37-3.46-45.55-1-12.76-2-25.51-3-38.26,0-.36-.06-.72-.08-1.08-.32-4.9-.34-4.74-5.42-5.41-22.52-2.95-42.34-11.89-59.08-27.3A100,100,0,0,1,28,234.78c-1.21-5.14-1.71-10.45-2.54-15.67-.15-1-.33-1.94-.5-2.92Z"/></g></g></svg>