<svg xmlns="http://www.w3.org/2000/svg" viewBox="0 0 30.47 34.96"><defs><style>.cls-1{fill:#ff285f;}.cls-2{fill:none;stroke:#ff285f;stroke-miterlimit:10;stroke-width:2.14px;}</style></defs><title>Asset 3</title><g id="Layer_2" data-name="Layer 2"><g id="Layer_10" data-name="Layer 10"><path class="cls-1" d="M24.41,2.14a3.93,3.93,0,0,1,3.92,3.92V28.91a3.93,3.93,0,0,1-3.92,3.91H6.06a3.93,3.93,0,0,1-3.92-3.91V6.06A3.93,3.93,0,0,1,6.06,2.14H24.41m0-2.14H6.06A6.08,6.08,0,0,0,0,6.06V28.91A6.07,6.07,0,0,0,6.06,35H24.41a6.07,6.07,0,0,0,6.06-6.05V6.06A6.08,6.08,0,0,0,24.41,0"/><line class="cls-2" x1="12.47" x2="12.47" y2="34.96"/><path class="cls-1" d="M17.69,23.66h-.44a.85.85,0,0,1-.86-.85V11.91a.85.85,0,0,1,.86-.85h.44a.86.86,0,0,1,.86.85v10.9a.86.86,0,0,1-.86.85"/><path class="cls-1" d="M7.69,23.66H7.25a.86.86,0,0,1-.86-.85V11.91a.86.86,0,0,1,.86-.85h.44a.86.86,0,0,1,.86.85v10.9a.86.86,0,0,1-.86.85"/></g></g></svg>