<svg xmlns="http://www.w3.org/2000/svg" viewBox="0 0 289.62 126.99"><defs><style>.cls-1{fill:#ff285f;}.cls-2,.cls-3{fill:none;stroke:#ff285f;stroke-miterlimit:10;}.cls-2{stroke-width:2px;}.cls-3{stroke-width:5px;}</style></defs><title>Logo Rojo_2</title><g id="Capa_2" data-name="Capa 2"><g id="Capa_3" data-name="Capa 3"><path class="cls-1" d="M43.38,99a24.69,24.69,0,0,1-10.66-9.76A28.41,28.41,0,0,1,29,74.54a46.57,46.57,0,0,1,4.39-20.62A34,34,0,0,1,45.28,40,29.61,29.61,0,0,1,62,35q8.53,0,13,4.38T79.33,51a15.38,15.38,0,0,1-1.7,7.75,5.8,5.8,0,0,1-8.34,1.89,3.63,3.63,0,0,1-1.26-3A19.64,19.64,0,0,1,68.35,55a20.81,20.81,0,0,0,.47-3.79q0-7.18-7.66-7.19a16.87,16.87,0,0,0-10,3.4,23.83,23.83,0,0,0-7.66,10,38.51,38.51,0,0,0-2.92,15.69q0,9.48,5.29,14.65t15.64,5.17a42.92,42.92,0,0,0,10.39-1.3,80.8,80.8,0,0,0,11.65-4,5.68,5.68,0,0,1,2-.47,2.1,2.1,0,0,1,1.89.95,4.23,4.23,0,0,1,.64,2.44q0,4.83-5.22,7.11a53.67,53.67,0,0,1-11.65,3.6,62.07,62.07,0,0,1-11.49,1.14A36.55,36.55,0,0,1,43.38,99Z"/><path class="cls-1" d="M127.4,85.36A5,5,0,0,1,128,88a7.29,7.29,0,0,1-1.5,4.9A41.41,41.41,0,0,1,119,99.74a14.82,14.82,0,0,1-8.73,2.68c-2.68,0-4.71-.77-6.08-2.33s-2-3.8-2-6.75a50,50,0,0,1,1.1-7.9,40.48,40.48,0,0,0,1-6.87c0-.84-.29-1.27-.87-1.27s-1.66.89-2.92,2.65a37.93,37.93,0,0,0-3.79,7,56.31,56.31,0,0,0-3.08,9.16q-1.5,6.33-7.43,6.32a3,3,0,0,1-3.12-1.69,17.11,17.11,0,0,1-.75-6.13c0-1.68,0-3,.08-4l.08-6.32A136.8,136.8,0,0,1,85,58.89q2.47-13.19,7.34-22.15t11.66-9a6.93,6.93,0,0,1,5.88,3.12,13.53,13.53,0,0,1,2.25,8.1,34.6,34.6,0,0,1-4.66,16.55q-4.67,8.57-15.17,20-.23,4.11-.23,8.46a44.94,44.94,0,0,1,5.8-10.94,22.74,22.74,0,0,1,6.32-6,11.56,11.56,0,0,1,5.73-1.81c3.42,0,5.14,1.71,5.14,5.13a63.46,63.46,0,0,1-1.74,11.14,54.87,54.87,0,0,0-1.5,9.08c0,2.11.76,3.16,2.29,3.16,1,0,2.3-.64,3.75-1.93a63.6,63.6,0,0,0,5.81-6.28,2.76,2.76,0,0,1,2.13-1.11A1.84,1.84,0,0,1,127.4,85.36ZM99.16,39.66a68.66,68.66,0,0,0-3.36,11,148.3,148.3,0,0,0-2.65,15,56.15,56.15,0,0,0,8.1-12.56,29.39,29.39,0,0,0,3.2-12.33,10.81,10.81,0,0,0-.55-3.87c-.37-.89-.9-1.34-1.58-1.34C101.37,35.59,100.31,37,99.16,39.66Z"/><path class="cls-1" d="M158.45,85.36A5,5,0,0,1,159,88a7.29,7.29,0,0,1-1.5,4.9,29,29,0,0,1-8.26,6.55,22.89,22.89,0,0,1-11.41,3q-8.3,0-12.88-4.5T120.41,85.6a22.79,22.79,0,0,1,2.29-10.15A18.59,18.59,0,0,1,129.06,68a16,16,0,0,1,9.2-2.76,10,10,0,0,1,7.35,2.72,9.92,9.92,0,0,1,2.76,7.39,12.77,12.77,0,0,1-3.91,9.36q-3.9,3.91-13.23,6.2,2,3.63,7.5,3.63a17.37,17.37,0,0,0,8.1-2.48,26.81,26.81,0,0,0,7.86-6.52,2.78,2.78,0,0,1,2.14-1.11A1.84,1.84,0,0,1,158.45,85.36Zm-26.47-9a15.9,15.9,0,0,0-2,8.22v.16a17.93,17.93,0,0,0,7.34-3.32A6.51,6.51,0,0,0,140,76.28a3.44,3.44,0,0,0-.83-2.41,2.87,2.87,0,0,0-2.25-.91Q134,73,132,76.35Z"/><path class="cls-1" d="M185.58,83.23q0,6.24-9.79,6.24a30.46,30.46,0,0,1-5.46-.71q1,4.89,1.7,10.86a90.46,90.46,0,0,1,.67,9.84q0,8.52-2.76,13c-1.84,3-4.27,4.5-7.27,4.5q-5.68,0-8.1-8T152.16,94.6a149.74,149.74,0,0,1,3.28-30.77q3.28-15.6,9-25.83t12.6-10.23a6.55,6.55,0,0,1,5.81,3.32A16.63,16.63,0,0,1,185,40q0,18.57-22.2,40.45A134.87,134.87,0,0,0,162,94.05c0,5.43.18,11,.55,16.71s1,8.57,1.82,8.57q2.37,0,2.37-8.22a84.07,84.07,0,0,0-.83-11.92Q165,93.42,163.62,87a5.5,5.5,0,0,1,.67-2.61,10.78,10.78,0,0,1,1.86-2.76,3,3,0,0,1,2-1.19c1.06,0,2.32.06,3.79.16a16,16,0,0,0,1.66.08,49.81,49.81,0,0,0,7-.55L182,80a13.52,13.52,0,0,1,1.42-.08C184.84,79.91,185.58,81,185.58,83.23Zm-13.7-42.82a88.37,88.37,0,0,0-4.15,12.76q-2.05,7.94-3.56,16.79a57.81,57.81,0,0,0,9.72-15,37.86,37.86,0,0,0,3.48-14.57q0-4.81-2-4.82Q174,35.59,171.88,40.41Z"/><path class="cls-1" d="M182.62,98q-4.31-4.38-4.31-11.57a23.86,23.86,0,0,1,2.53-11.22,19.31,19.31,0,0,1,6.56-7.43,15.27,15.27,0,0,1,8.45-2.6,8.83,8.83,0,0,1,6.76,2.56,9.28,9.28,0,0,1,2.41,6.6A10.19,10.19,0,0,1,203.55,80a4.38,4.38,0,0,1-3.83,2.29,3.84,3.84,0,0,1-2.41-.71,2.39,2.39,0,0,1-.91-2,6.28,6.28,0,0,1,.16-1.26l.24-1a7.06,7.06,0,0,0,.39-2.21,2.26,2.26,0,0,0-.51-1.58,1.89,1.89,0,0,0-1.46-.55,4.73,4.73,0,0,0-3.4,1.62A11.69,11.69,0,0,0,189.29,79a18.73,18.73,0,0,0-.94,6.08q0,9.17,8,9.17a14.23,14.23,0,0,0,7-2.17,28.45,28.45,0,0,0,7.38-6.52,2.79,2.79,0,0,1,2.14-1.11,1.84,1.84,0,0,1,1.62,1,5,5,0,0,1,.59,2.61,7.68,7.68,0,0,1-1.5,4.9,25.74,25.74,0,0,1-8.89,7.07,23.12,23.12,0,0,1-10,2.48Q186.92,102.42,182.62,98Z"/><path class="cls-1" d="M210.9,98.79c-1.55-2.42-2.33-5.64-2.33-9.64a58.4,58.4,0,0,1,.91-9.12,83.42,83.42,0,0,1,2.33-10.39,6.7,6.7,0,0,1,1.9-3.48,6.08,6.08,0,0,1,3.79-.94c2.68,0,4,.89,4,2.68a61.84,61.84,0,0,1-1.5,9.16q-1.91,8.7-1.9,11.78a8.33,8.33,0,0,0,.63,3.63,2.2,2.2,0,0,0,2.13,1.26c1,0,2.14-.65,3.56-2a72,72,0,0,0,5.69-6.24,2.76,2.76,0,0,1,2.13-1.11,1.83,1.83,0,0,1,1.62,1,4.85,4.85,0,0,1,.59,2.61,7.29,7.29,0,0,1-1.5,4.9q-7.81,9.55-14.61,9.55Q213.23,102.42,210.9,98.79ZM214,58.46a5.61,5.61,0,0,1-1.66-4.31,5.84,5.84,0,0,1,2.18-4.62A8.05,8.05,0,0,1,220,47.68a7.49,7.49,0,0,1,4.74,1.42,4.82,4.82,0,0,1,1.81,4,6.41,6.41,0,0,1-2.05,5A7.82,7.82,0,0,1,219,60,7.09,7.09,0,0,1,214,58.46Z"/><path class="cls-1" d="M264.94,85.36a5,5,0,0,1,.59,2.61,7.29,7.29,0,0,1-1.5,4.9,33.65,33.65,0,0,1-7.43,6.87,16.27,16.27,0,0,1-9.24,2.68q-16.12,0-16.12-22.67,0-3.48.24-7H228.4c-1.58,0-2.65-.29-3.2-.87a3.91,3.91,0,0,1-.83-2.76q0-4.43,3.55-4.43h4.51a76.31,76.31,0,0,1,4.11-15.88,35.66,35.66,0,0,1,6.67-11.45q3.91-4.28,8.41-4.27A5.93,5.93,0,0,1,256.84,36a13.29,13.29,0,0,1,1.89,7.35q0,12.26-10.27,21.33h8.85a2.51,2.51,0,0,1,1.82.56,2.88,2.88,0,0,1,.55,2q0,5.45-8.92,5.45h-9.64c-.11,2.63-.16,4.69-.16,6.16q0,8.22,1.94,11.54A6.57,6.57,0,0,0,249,93.73a9.42,9.42,0,0,0,6-2,47.73,47.73,0,0,0,6.16-6.16,2.79,2.79,0,0,1,2.14-1.11A1.84,1.84,0,0,1,264.94,85.36ZM246.85,43.61a41.66,41.66,0,0,0-2.77,8.21,110.41,110.41,0,0,0-2.17,11.66,27.15,27.15,0,0,0,7-9,22,22,0,0,0,2.33-9.12q0-4.66-1.74-4.66C248.7,40.65,247.82,41.63,246.85,43.61Z"/><path class="cls-1" d="M264.54,100.09A14.43,14.43,0,0,1,259.6,94a20.19,20.19,0,0,1-1.66-8.14,24.33,24.33,0,0,1,2.26-10.7,18.24,18.24,0,0,1,6.12-7.35A15.05,15.05,0,0,1,275,65.14a13.52,13.52,0,0,1,8,2.33,14.28,14.28,0,0,1,5,6.12,20,20,0,0,1,1.66,8.14,24.07,24.07,0,0,1-2.29,10.7,18.41,18.41,0,0,1-6.2,7.35,15.13,15.13,0,0,1-8.65,2.64A13.31,13.31,0,0,1,264.54,100.09ZM277.89,91q1.86-2.93,1.86-8.53c0-2.9-.53-5.08-1.58-6.56a4.61,4.61,0,0,0-3.79-2.21,5.45,5.45,0,0,0-4.7,2.88c-1.24,1.93-1.86,4.78-1.86,8.57,0,3,.52,5.22,1.58,6.64a4.75,4.75,0,0,0,4,2.13Q276,93.89,277.89,91Z"/><path class="cls-1" d="M28.61,21.84C26.55,23.2,24.13,25.39,24,28c-.28,4.16,5.58,7,9.05,6.8,4.75-.21,19-5.41,10.6-11a1.26,1.26,0,0,0-1.52,2c6.84,6.37,14.88-2.11,18.48-7.64L58.4,16.92c-1.64,2.62-3,6.93.59,8.56,4.41,2,9.19-2.27,11.46-5.62l-2.16-1.27c-1.56,2.73-1.83,6.36.83,8.48,3.69,2.95,8.48,2,11.93-.59,10.56-7.82-2.52-25-13-16.29l2,.25C65.58,0,53.91-4.18,46,5.34c-.68.8-1.71,3.27-2.4,3.6-.51.25-1.68-.23-2.59-.37a9.53,9.53,0,0,0-5.38.62c-5.1,2.25-6.7,8.42-7.54,13.39-.27,1.58,2.14,2.25,2.41.67C31.67,16,35.14,8.51,43.54,11.93A1.25,1.25,0,0,0,45,11.36c2.72-4.86,7.13-10.23,13.4-9,4.72.95,7.76,5.16,9.52,9.32.35.8,1.42.7,2,.25,5.2-4.32,11.58-.09,12.75,5.93.67,3.44-1.62,5.89-4.41,7.48-4.19,2.37-10.72-.3-7.73-5.51a1.25,1.25,0,0,0-2.16-1.27c-1.12,1.65-3,3.83-4.93,4.29-4.3,1-4.32-2.27-2.8-4.7.85-1.37-1.29-2.6-2.16-1.26-2.56,3.93-9.16,12.15-14.55,7.13l-1.51,2c3.51,2.32-2.15,4.15-4.05,4.8-1.65.56-3.81,1.49-5.58,1.51-2.62,0-7.18-2.21-5.86-5.3a8.38,8.38,0,0,1,3-3c1.34-.88.09-3-1.26-2.15Z"/><path class="cls-2" d="M36.42,35.35l3.48,4.18s16.86-11.21,28-6.34l2.92-6.68S62.12,16.06,35.3,34.86"/><path class="cls-1" d="M41,91a14.42,14.42,0,0,1-4.53,7.28,17.73,17.73,0,0,1-8.34,3.87A29.65,29.65,0,0,1,15.21,102a21.12,21.12,0,0,1-9.83-5.16,17.16,17.16,0,0,1-5-9q-1.06-4.9,1-8A9.54,9.54,0,0,1,7.77,76a9.8,9.8,0,0,1,4.85,0A3.19,3.19,0,0,1,15,78.51a3.07,3.07,0,0,1-.18,2.12,2.22,2.22,0,0,1-1.65,1.08,11.4,11.4,0,0,1-1.6.13A13.66,13.66,0,0,0,9.21,82q-4.31.86-3.36,5.25a9.77,9.77,0,0,0,3.27,5.31,14.82,14.82,0,0,0,6.94,3.21,24.48,24.48,0,0,0,9.76-.18q5.68-1.12,8.13-4.78"/><rect class="cls-3" x="21.45" y="41.21" width="19.12" height="17.75" rx="8.87" transform="translate(31.85 -8.82) rotate(32.58)"/><circle class="cls-1" cx="56" cy="50.74" r="3"/></g></g></svg>