<svg xmlns="http://www.w3.org/2000/svg" viewBox="0 0 9.62 9.95"><defs><style>.cls-1{fill:none;stroke:gray;stroke-miterlimit:10;stroke-width:0.8px;}</style></defs><title>Asset 9</title><g id="Layer_2" data-name="Layer 2"><g id="Layer_10" data-name="Layer 10"><path class="cls-1" d="M2.42,9.55V8.25a1.59,1.59,0,0,0-.07-.48,19.37,19.37,0,0,0-1.6-4A1.66,1.66,0,0,1,.42,2.56C.55,1.67.86.77,1.24.71S6.55-.1,8.59,1a1.67,1.67,0,0,1,.47,2,10.1,10.1,0,0,0-.84,2.87A1.57,1.57,0,0,1,8,6.72l-.46.72a1.68,1.68,0,0,0-.26.89V9.55Z"/></g></g></svg>