<svg xmlns="http://www.w3.org/2000/svg" xmlns:xlink="http://www.w3.org/1999/xlink" viewBox="0 0 28.76 23.61"><defs><style>.cls-1{fill:url(#Nueva_muestra_de_degradado_1);}.cls-2{fill:url(#Nueva_muestra_de_degradado_1-2);}.cls-3{fill:url(#Nueva_muestra_de_degradado_1-3);}.cls-4{fill:url(#Nueva_muestra_de_degradado_1-4);}.cls-5{fill:url(#Nueva_muestra_de_degradado_1-5);}.cls-6{fill:url(#Nueva_muestra_de_degradado_1-6);}.cls-7{fill:#ff285f;}.cls-8{fill:#f2f2f2;}</style><linearGradient id="Nueva_muestra_de_degradado_1" x1="4.03" y1="11.97" x2="28.76" y2="11.97" gradientUnits="userSpaceOnUse"><stop offset="0" stop-color="#ff2a5d"/><stop offset="1" stop-color="#ff406a"/></linearGradient><linearGradient id="Nueva_muestra_de_degradado_1-2" x1="12.26" y1="5.9" x2="14.19" y2="5.9" xlink:href="#Nueva_muestra_de_degradado_1"/><linearGradient id="Nueva_muestra_de_degradado_1-3" x1="16.36" y1="8.94" x2="18.18" y2="8.94" xlink:href="#Nueva_muestra_de_degradado_1"/><linearGradient id="Nueva_muestra_de_degradado_1-4" x1="8.28" y1="8.06" x2="9.61" y2="8.06" xlink:href="#Nueva_muestra_de_degradado_1"/><linearGradient id="Nueva_muestra_de_degradado_1-5" x1="18.68" y1="4.56" x2="20.33" y2="4.56" xlink:href="#Nueva_muestra_de_degradado_1"/><linearGradient id="Nueva_muestra_de_degradado_1-6" x1="23.98" y1="7.71" x2="25.65" y2="7.71" xlink:href="#Nueva_muestra_de_degradado_1"/></defs><title>Asset 8</title><g id="Layer_2" data-name="Layer 2"><g id="Layer_11" data-name="Layer 11"><path class="cls-1" d="M4,9.21A13.89,13.89,0,0,1,9.48,2.48C16-1.84,24.13.53,28.19,7.91c.22.41.38.86.57,1.3v.9c-.34,1-.85,1.82-1.88,2-.11,0-.23.34-.28.54-.68,2.92-1.34,5.85-2,8.78-.35,1.55-1.06,2.2-2.43,2.2H10.57c-1.29,0-2-.66-2.37-2.14-.66-2.9-1.33-5.81-2-8.72-.09-.41-.19-.67-.64-.76C4.73,11.8,4.31,11,4,10.11Zm12.35,1.84h9.94a1.32,1.32,0,0,0,1.4-.76,1.85,1.85,0,0,0-.23-1.79C24.56,3.13,19.22.4,13.84,1.66c-3.73.87-6.61,3.27-8.65,7.05a1.64,1.64,0,0,0-.05,1.73,1.27,1.27,0,0,0,1.25.62Zm1.85,11.51L19,12.12H13.84l.72,10.44ZM13,12.12H9.35l1.8,10.42h2.53Zm6.87,0L19.1,22.58c.73,0,1.4,0,2.07,0,.38,0,.49-.15.56-.56.41-2.47.86-4.94,1.28-7.41.14-.82.27-1.65.41-2.51ZM10.26,22.58C9.67,19.13,9.09,15.76,8.5,12.4a.49.49,0,0,0-.33-.31,10.51,10.51,0,0,0-1.12,0c0,.11,0,.15,0,.19.7,3.07,1.39,6.15,2.1,9.21A1.35,1.35,0,0,0,10.26,22.58Zm12.26,0a1.56,1.56,0,0,0,1.19-1.27q.69-3.06,1.4-6.12c.23-1,.46-2.05.7-3.14a8,8,0,0,1-1,0c-.39-.05-.52.14-.59.59-.28,1.81-.62,3.6-.93,5.4C23,19.54,22.79,21,22.52,22.61Z"/><path class="cls-2" d="M14.19,5.21a3.14,3.14,0,0,1-.26.46c-.31.38-.64.75-1,1.12s-.47.34-.65,0a.85.85,0,0,1,0-.7,8.1,8.1,0,0,1,1-1.22.52.52,0,0,1,.48-.1C14,4.84,14.07,5.05,14.19,5.21Z"/><path class="cls-3" d="M17.84,7.87c.08,0,.26.12.3.24a.81.81,0,0,1,0,.58A10.16,10.16,0,0,1,17,10a.47.47,0,0,1-.53,0,.65.65,0,0,1-.11-.55c.39-.51.82-1,1.24-1.44C17.65,7.89,17.72,7.9,17.84,7.87Z"/><path class="cls-4" d="M9.61,8.8c-.11.15-.22.4-.36.43A.5.5,0,0,1,8.77,9a9.68,9.68,0,0,1-.49-1.61.59.59,0,0,1,.24-.49c.15-.05.46,0,.51.15C9.25,7.58,9.4,8.15,9.61,8.8Z"/><path class="cls-5" d="M20,5.57a1.48,1.48,0,0,1-.37-.24,6.26,6.26,0,0,1-.84-1,.76.76,0,0,1,0-.66.5.5,0,0,1,.56,0,7.53,7.53,0,0,1,.93,1.08.72.72,0,0,1,.06.52C20.26,5.37,20.08,5.45,20,5.57Z"/><path class="cls-6" d="M24.52,6.72c.16.17.42.39.64.65s.76.64.32,1.14-.65-.14-.92-.4a2.8,2.8,0,0,1-.49-.59A.51.51,0,0,1,24.52,6.72Z"/><circle class="cls-7" cx="4.53" cy="4.53" r="4.53"/><rect class="cls-8" x="4.03" y="1.89" width="1.01" height="5.28"/><rect class="cls-8" x="4.03" y="1.89" width="1.01" height="5.28" transform="translate(9.06 0) rotate(90)"/></g></g></svg>