<svg xmlns="http://www.w3.org/2000/svg" viewBox="0 0 11.91 11.71"><defs><style>.cls-1{fill:gray;}</style></defs><title>Asset 16</title><g id="Layer_2" data-name="Layer 2"><g id="Layer_10" data-name="Layer 10"><path class="cls-1" d="M6.12,4.47l.81-.22,1.68-.49,2.47-.7L11.37,3V3l0-.05A5.48,5.48,0,0,0,9.65,1.62c-.34-.17-.69-.32-1-.46A9.14,9.14,0,0,0,6.91.68C6.51.6,6.11.54,5.71.49A10.41,10.41,0,0,0,4.23.41a.1.1,0,0,0-.08,0c-.26.4-.51.81-.76,1.21l-.59,1-.36.54a.15.15,0,0,0,0,.16,1,1,0,0,1,0,.63,1.12,1.12,0,0,1-1,.89.1.1,0,0,0-.07,0c-.1.14-.19.29-.28.44L.85,5.7.58,5.43v0C.72,5.17.86,5,1,4.73l.08-.09.19-.21h.11a.71.71,0,0,0,.72-.86A.64.64,0,0,0,2,3.37a.28.28,0,0,1,0-.29c.27-.42.53-.84.79-1.26l1-1.67A.26.26,0,0,1,4.13,0c.47,0,.94,0,1.41.06a8,8,0,0,1,.84.11,11.29,11.29,0,0,1,2,.47,8.43,8.43,0,0,1,2.38,1.19,5.31,5.31,0,0,1,1.09,1.08.37.37,0,0,1,.07.27v5a.22.22,0,0,1-.2.26L9,9.2,7.1,9.75l-1.68.48L3,10.92l-1.85.53H1.07l-.3-.3.06,0,1.75-.5L4.64,10l2.09-.6,2.06-.58,2.63-.75A.11.11,0,0,0,11.51,8V3.37l-.19,0-2.5.72-1.34.38-1.2.33-2.53.73-.37.1-1.92.55H1.39l-.3-.3a.43.43,0,0,1,.12,0l2.27-.65.07,0Z"/><path class="cls-1" d="M.58,5.43l.27.27L.66,6,1,6l.14,0,.3.3-.06,0-.86.25s-.07,0-.07.1v.76a.1.1,0,0,0,.09.12A1.1,1.1,0,0,1,1.3,8.72a1.06,1.06,0,0,1-.82.92c-.07,0-.08,0-.08.11v.92a.29.29,0,0,1,0,.09L0,10.4s0-.05,0-.07V9.51a.21.21,0,0,1,.23-.23.75.75,0,0,0,.68-.62.71.71,0,0,0-.54-.78l-.18,0A.21.21,0,0,1,0,7.65V6.38a.44.44,0,0,1,.05-.15l.48-.76A.1.1,0,0,1,.58,5.43Z"/><path class="cls-1" d="M.77,11.14l.3.3s0,0,0,0l-.75.22A.22.22,0,0,1,0,11.47v-.25s0-.05,0-.08l.36-.36a.29.29,0,0,1,0,.09v.37Z"/><path class="cls-1" d="M.38,10.78,0,11.14s0,0,0-.05v-.65l0,0,.36.36Z"/><path class="cls-1" d="M1.26,4.43l-.19.21A.25.25,0,0,1,1.26,4.43Z"/><path class="cls-1" d="M8.06,6A1.18,1.18,0,0,1,9.34,4.8a1,1,0,0,1,.9.86A1.21,1.21,0,0,1,9.48,7a1,1,0,0,1-1.2-.31A1,1,0,0,1,8.06,6Zm1,.64a.8.8,0,0,0,.76-.88.61.61,0,0,0-.7-.55.82.82,0,0,0-.68.73A.62.62,0,0,0,9.08,6.63Z"/><path class="cls-1" d="M5.71,8.37a1.22,1.22,0,0,1-.35.87.81.81,0,0,1-1.23-.07,1.22,1.22,0,0,1-.27-.86,1.17,1.17,0,0,1,.45-.91.79.79,0,0,1,1,.07A1.18,1.18,0,0,1,5.71,8.37Zm-.4,0a.49.49,0,0,1,0-.12.82.82,0,0,0-.24-.49.41.41,0,0,0-.53,0,.7.7,0,0,0-.24.39.87.87,0,0,0,.18.82.4.4,0,0,0,.61,0A.91.91,0,0,0,5.31,8.37Z"/><path class="cls-1" d="M5.52,3.42a.9.9,0,0,1-.82-.58A.9.9,0,0,1,4.79,2a1.13,1.13,0,0,1,1-.57.93.93,0,0,1,1,.77A1,1,0,0,1,6.5,3,1.26,1.26,0,0,1,5.52,3.42ZM5.61,3a.77.77,0,0,0,.75-.54.48.48,0,0,0-.23-.59A.71.71,0,0,0,5.32,2,.63.63,0,0,0,5,2.43.53.53,0,0,0,5.61,3Z"/></g></g></svg>