<?xml version="1.0" encoding="utf-8"?>
<!-- Generator: Adobe Illustrator 24.0.0, SVG Export Plug-In . SVG Version: 6.00 Build 0)  -->
<svg version="1.1" id="Capa_1" xmlns="http://www.w3.org/2000/svg" xmlns:xlink="http://www.w3.org/1999/xlink" x="0px" y="0px"
	 viewBox="0 0 512 512" style="enable-background:new 0 0 512 512;" xml:space="preserve">
<style type="text/css">
	.st0{fill:#FF285F;}
</style>
<g>
	<g>
		<path class="st0" d="M256,0c-74.4,0-135,60.6-135,135s60.6,135,135,135s135-60.6,135-135S330.4,0,256,0z M256,240
			c-57.9,0-105-47.1-105-105S198.1,30,256,30s105,47.1,105,105S313.9,240,256,240z"/>
	</g>
</g>
<g>
	<g>
		<path class="st0" d="M297.8,301h-83.7C145,301,76.7,333,31,401.5V512h450V401.5C435.4,333,367.1,301,297.8,301z M451,482L451,482
			H61v-71.4c35-50,92-79.6,153.2-79.6h83.7C359,331,416,360.7,451,410.6L451,482L451,482z"/>
	</g>
</g>
</svg>
